<?xml version="1.0" encoding="iso-8859-1"?>
<!-- Generator: Adobe Illustrator 19.0.0, SVG Export Plug-In . SVG Version: 6.00 Build 0)  -->
<svg version="1.1" id="Capa_1" xmlns="http://www.w3.org/2000/svg" xmlns:xlink="http://www.w3.org/1999/xlink" x="0px" y="0px"
	 viewBox="0 0 497.371 497.371" style="enable-background:new 0 0 497.371 497.371;" xml:space="preserve">
<path style="fill:#FFFFFF;" d="M431.543,14.629H65.829l49.737,157.989v260.389c0,27.794,21.943,49.737,49.737,49.737h266.24
	c27.794,0,49.737-21.943,49.737-49.737V64.366C481.28,36.571,457.874,14.629,431.543,14.629z"/>
<path d="M431.543,497.371h-266.24c-35.109,0-64.366-29.257-64.366-64.366V172.617c0-8.777,5.851-14.629,14.629-14.629
	s14.629,5.851,14.629,14.629v261.851c0,19.017,16.091,35.109,35.109,35.109h266.24c19.017,0,35.109-16.091,35.109-35.109V64.366
	c0-19.017-16.091-35.109-35.109-35.109H65.829c-8.777,0-14.629-5.851-14.629-14.629S57.051,0,65.829,0h365.714
	c35.109,0,64.366,29.257,64.366,64.366v368.64C495.909,468.114,466.651,497.371,431.543,497.371z"/>
<path style="fill:#F58570;" d="M65.829,14.629c-26.331,0-49.737,21.943-49.737,49.737v200.411c0,7.314,5.851,13.166,13.166,13.166
	H102.4c7.314,0,13.166-5.851,13.166-13.166V64.366C115.566,36.571,93.623,14.629,65.829,14.629z"/>
<path style="fill:#F1594C;" d="M111.177,45.349c-2.926,0-5.851-1.463-8.777-1.463c-26.331,0-49.737,21.943-49.737,49.737v184.32
	H29.257c-7.314,0-13.166-5.851-13.166-13.166V64.366c0-27.794,23.406-49.737,49.737-49.737
	C86.309,14.629,103.863,27.794,111.177,45.349z"/>
<path d="M105.326,292.571H26.331c-13.166,0-24.869-11.703-24.869-24.869V61.44C1.463,27.794,29.257,0,62.903,0h5.851
	c33.646,0,61.44,27.794,61.44,61.44v206.263C130.194,280.869,118.491,292.571,105.326,292.571z M30.72,263.314h70.217V61.44
	c0-17.554-14.629-32.183-32.183-32.183h-5.851c-17.554,0-32.183,14.629-32.183,32.183C30.72,61.44,30.72,263.314,30.72,263.314z"/>
<rect x="179.931" y="87.771" style="fill:#C0D0D6;" width="61.44" height="61.44"/>
<path d="M422.766,131.657H285.257c-8.777,0-14.629-5.851-14.629-14.629s5.851-14.629,14.629-14.629h137.509
	c8.777,0,14.629,5.851,14.629,14.629S431.543,131.657,422.766,131.657z"/>
<path d="M239.909,162.377h-61.44c-8.777,0-14.629-5.851-14.629-14.629V87.771c0-8.777,5.851-14.629,14.629-14.629h61.44
	c8.777,0,14.629,5.851,14.629,14.629v61.44C254.537,156.526,248.686,162.377,239.909,162.377z M194.56,133.12h32.183V102.4H194.56
	V133.12z"/>
<rect x="179.931" y="204.8" style="fill:#77C587;" width="61.44" height="61.44"/>
<path d="M422.766,250.149H285.257c-8.777,0-14.629-5.851-14.629-14.629s5.851-14.629,14.629-14.629h137.509
	c8.777,0,14.629,5.851,14.629,14.629S431.543,250.149,422.766,250.149z"/>
<path d="M239.909,280.869h-61.44c-8.777,0-14.629-5.851-14.629-14.629V204.8c0-8.777,5.851-14.629,14.629-14.629h61.44
	c8.777,0,14.629,5.851,14.629,14.629v61.44C254.537,273.554,248.686,280.869,239.909,280.869z M194.56,251.611h32.183v-32.183
	H194.56V251.611z"/>
<rect x="179.931" y="321.829" style="fill:#FFCA19;" width="61.44" height="61.44"/>
<path d="M422.766,367.177H285.257c-8.777,0-14.629-5.851-14.629-14.629c0-8.777,5.851-14.629,14.629-14.629h137.509
	c8.777,0,14.629,5.851,14.629,14.629C437.394,361.326,431.543,367.177,422.766,367.177z"/>
<path d="M239.909,397.897h-61.44c-8.777,0-14.629-5.851-14.629-14.629v-61.44c0-8.777,5.851-14.629,14.629-14.629h61.44
	c8.777,0,14.629,5.851,14.629,14.629v61.44C254.537,392.046,248.686,397.897,239.909,397.897z M194.56,368.64h32.183v-32.183H194.56
	V368.64z"/>
<g>
</g>
<g>
</g>
<g>
</g>
<g>
</g>
<g>
</g>
<g>
</g>
<g>
</g>
<g>
</g>
<g>
</g>
<g>
</g>
<g>
</g>
<g>
</g>
<g>
</g>
<g>
</g>
<g>
</g>
</svg>
